<?xml version="1.0"?>
<svg xmlns="http://www.w3.org/2000/svg" height="512px" viewBox="0 0 512 512" width="512px" class=""><g><script xmlns=""/><path d="m425.359375 0h-338.71875c-47.851563 0-86.640625 38.789062-86.640625 86.640625v338.71875c0 47.851563 38.789062 86.640625 86.640625 86.640625h338.71875c47.851563 0 86.640625-38.789062 86.640625-86.640625v-338.71875c0-47.851563-38.789062-86.640625-86.640625-86.640625zm0 0" fill="#ccc" data-original="#CCC" class="active-path" data-old_color="#ccc" style="fill:#58595B"/><path d="m86.640625 490.058594c-35.671875 0-64.699219-29.027344-64.699219-64.699219v-338.71875c0-35.671875 29.027344-64.699219 64.699219-64.699219h338.71875c35.671875 0 64.699219 29.027344 64.699219 64.699219v338.71875c0 35.671875-29.027344 64.699219-64.699219 64.699219zm0 0" fill="#e6e6e6" data-original="#E6E6E6" class="" style="fill:#FFFFFF" data-old_color="#e6e6e6"/><path d="m423.039062 200.171875h-88.292968c-12.65625 0-22.917969-10.261719-22.917969-22.917969v-88.292968c0-12.65625-10.257813-22.914063-22.914063-22.914063h-65.828124c-12.65625 0-22.914063 10.257813-22.914063 22.914063v88.292968c0 12.65625-10.261719 22.917969-22.917969 22.917969h-88.289062c-12.65625 0-22.917969 10.257813-22.917969 22.914063v65.828124c0 12.65625 10.261719 22.914063 22.917969 22.914063h88.289062c12.660156 0 22.917969 10.261719 22.917969 22.917969v88.292968c0 12.65625 10.261719 22.914063 22.917969 22.914063h65.824218c12.65625 0 22.914063-10.257813 22.914063-22.914063v-88.292968c0-12.65625 10.261719-22.917969 22.917969-22.917969h88.292968c12.65625 0 22.917969-10.257813 22.917969-22.914063v-65.828124c-.003906-12.65625-10.261719-22.914063-22.917969-22.914063zm0 0" fill="#ff5a73" data-original="#FF5A73" class="" style="fill:#FF8200" data-old_color="#ff5a73"/></g> </svg>
